<?xml version="1.0" encoding="UTF-8" standalone="no"?>
<svg
   xmlns:dc="http://purl.org/dc/elements/1.1/"
   xmlns:cc="http://creativecommons.org/ns#"
   xmlns:rdf="http://www.w3.org/1999/02/22-rdf-syntax-ns#"
   xmlns:svg="http://www.w3.org/2000/svg"
   xmlns="http://www.w3.org/2000/svg"
   xmlns:sodipodi="http://sodipodi.sourceforge.net/DTD/sodipodi-0.dtd"
   xmlns:inkscape="http://www.inkscape.org/namespaces/inkscape"
   width="210mm"
   height="297mm"
   viewBox="0 0 210 297"
   version="1.1"
   id="svg8"
   sodipodi:docname="Simon Says.svg"
   inkscape:version="1.0.1 (c497b03c, 2020-09-10)">
  <defs
     id="defs2" />
  <sodipodi:namedview
     id="base"
     pagecolor="#ffffff"
     bordercolor="#666666"
     borderopacity="1.0"
     inkscape:pageopacity="0.0"
     inkscape:pageshadow="2"
     inkscape:zoom="2.0888839"
     inkscape:cx="477.63359"
     inkscape:cy="865.50089"
     inkscape:document-units="mm"
     inkscape:current-layer="layer1"
     inkscape:document-rotation="0"
     showgrid="false"
     inkscape:window-width="1920"
     inkscape:window-height="978"
     inkscape:window-x="0"
     inkscape:window-y="23"
     inkscape:window-maximized="0"
     showguides="false"
     inkscape:lockguides="true"
     inkscape:snap-global="false" />
  <metadata
     id="metadata5">
    <rdf:RDF>
      <cc:Work
         rdf:about="">
        <dc:format>image/svg+xml</dc:format>
        <dc:type
           rdf:resource="http://purl.org/dc/dcmitype/StillImage" />
        <dc:title></dc:title>
      </cc:Work>
    </rdf:RDF>
  </metadata>
  <g
     inkscape:label="Layer 1"
     inkscape:groupmode="layer"
     id="layer1">
    <g
       id="panel9937"
       transform="translate(-52.916694,3.1750001)">
      <path
         style="fill:none;stroke:#000000;stroke-width:1"
         d="m 72,116.1 h 6.4764 V 113 h 6.19 v 3.1 h 6.3815 V 113 h 6.19 v 3.1 h 6.3811 V 113 h 6.19 v 3.1 h 6.382 V 113 h 6.19 v 3.1 h 6.381 V 113 h 6.19 v 3.1 h 6.382 V 113 h 6.19 v 3.1 h 6.381 V 113 h 6.19 v 3.1 h 6.381 V 113 h 6.19 v 3.1 h 6.382 V 113 h 6.19 v 3.1 h 6.381 V 113 h 6.19 v 3.1 h 6.382 V 113 h 6.19 v 3.1 h 6.381 V 113 h 6.19 v 3.1 h 6.382 V 113 h 6.19 v 3.1 H 242"
         id="path13" />
      <path
         style="fill:none;stroke:#000000;stroke-width:1"
         d="m 242,116.1 v 3.662 h -3.1 v 5.81 h 3.1 v 6.856 h -3.1 v 5.81 h 3.1 v 6.857 h -3.1 v 5.81 h 3.1 v 6.857 h -3.1 v 5.81 h 3.1 v 6.856 h -3.1 v 5.81 h 3.1 v 3.662"
         id="path15" />
      <path
         style="fill:none;stroke:#000000;stroke-width:1"
         d="m 242,179.9 h -6.476 v 3.1 h -6.19 v -3.1 h -6.382 v 3.1 h -6.19 v -3.1 h -6.381 v 3.1 h -6.19 v -3.1 h -6.382 v 3.1 h -6.19 v -3.1 h -6.381 v 3.1 h -6.19 v -3.1 h -6.382 v 3.1 h -6.19 v -3.1 h -6.381 v 3.1 h -6.19 v -3.1 h -6.381 v 3.1 h -6.19 v -3.1 h -6.382 v 3.1 h -6.19 v -3.1 h -6.381 v 3.1 h -6.19 v -3.1 h -6.382 v 3.1 h -6.19 v -3.1 h -6.3811 v 3.1 h -6.19 v -3.1 h -6.3815 v 3.1 h -6.19 v -3.1 H 72"
         id="path17" />
      <path
         style="fill:none;stroke:#000000;stroke-width:1"
         d="m 72,179.9 v -3.662 h 3.1 v -5.81 H 72 v -6.856 h 3.1 v -5.81 H 72 v -6.857 h 3.1 v -5.81 H 72 v -6.857 h 3.1 v -5.81 H 72 v -6.856 h 3.1 v -5.81 H 72 V 116.1"
         id="path19" />
    </g>
    <g
       id="panel402"
       transform="translate(105.98804,157.35002)">
      <path
         style="fill:none;stroke:#000000;stroke-width:1"
         d="M 4.1,75.1 H 7.57167 V 72 h 6.19003 v 3.1 h 6.4766 V 72 h 6.19 v 3.1 H 32.905 V 72 h 6.19 v 3.1 h 6.4767 V 72 h 6.19 v 3.1 h 6.4766 V 72 h 6.19 v 3.1 H 67.9"
         id="path52" />
      <path
         style="fill:none;stroke:#000000;stroke-width:1"
         d="m 67.9,75.1 v 6.1383 H 71 v 6.19 h -3.1 v 9.1434 H 71 v 6.1903 h -3.1 v 6.138"
         id="path54" />
      <path
         style="fill:none;stroke:#000000;stroke-width:1"
         d="m 67.9,108.9 h -3.4717 v 3.1 h -6.19 v -3.1 h -6.4766 v 3.1 h -6.19 v -3.1 H 39.095 v 3.1 h -6.19 v -3.1 h -6.4767 v 3.1 h -6.19 v -3.1 H 13.7617 V 112 H 7.57167 v -3.1 H 4.1"
         id="path56" />
      <path
         style="fill:none;stroke:#000000;stroke-width:1"
         d="m 4.1,108.9 v -6.138 H 1 V 96.5717 H 4.1 V 87.4283 H 1 v -6.19 H 4.1 V 75.1"
         id="path58" />
    </g>
    <g
       id="panel794"
       transform="translate(-52.916694,3.1750001)">
      <path
         style="fill:none;stroke:#000000;stroke-width:1"
         d="m 72,72 h 6.6664 v 3.1 h 5.81 V 72 h 6.7615 v 3.1 h 5.81 V 72 h 6.7611 v 3.1 h 5.81 V 72 h 6.762 v 3.1 h 5.81 V 72 h 6.761 v 3.1 h 5.81 V 72 h 6.762 v 3.1 h 5.81 V 72 h 6.761 v 3.1 h 5.81 V 72 h 6.761 v 3.1 h 5.81 V 72 h 6.762 v 3.1 h 5.81 V 72 h 6.761 v 3.1 h 5.81 V 72 h 6.762 v 3.1 h 5.81 V 72 h 6.761 v 3.1 h 5.81 V 72 h 6.762 v 3.1 h 5.81 V 72 H 242"
         id="path100" />
      <path
         style="fill:none;stroke:#000000;stroke-width:1"
         d="m 242,72 v 9.4283 h -3.1 v 5.81 h 3.1 v 9.5234 h -3.1 v 5.8103 H 242 V 112"
         id="path102" />
      <path
         style="fill:none;stroke:#000000;stroke-width:1"
         d="m 242,112 h -6.666 v -3.1 h -5.81 v 3.1 h -6.762 v -3.1 h -5.81 v 3.1 h -6.761 v -3.1 h -5.81 v 3.1 h -6.762 v -3.1 h -5.81 v 3.1 h -6.761 v -3.1 h -5.81 v 3.1 h -6.762 v -3.1 h -5.81 v 3.1 h -6.761 v -3.1 h -5.81 v 3.1 h -6.761 v -3.1 h -5.81 v 3.1 h -6.762 v -3.1 h -5.81 v 3.1 h -6.761 v -3.1 h -5.81 v 3.1 h -6.762 v -3.1 h -5.81 v 3.1 h -6.7611 v -3.1 h -5.81 v 3.1 h -6.7615 v -3.1 h -5.81 V 112 H 72"
         id="path104" />
      <path
         style="fill:none;stroke:#000000;stroke-width:1"
         d="m 72,112 v -9.428 h 3.1 V 96.7617 H 72 v -9.5234 h 3.1 v -5.81 H 72 V 72"
         id="path106" />
    </g>
    <g
       id="panel5431"
       transform="translate(-224.54146,157.35002)">
      <path
         style="fill:none;stroke:#000000;stroke-width:1"
         d="m 246.1,75.1 h 3.472 V 72 h 6.19 v 3.1 h 6.476 V 72 h 6.19 v 3.1 h 6.477 V 72 h 6.19 v 3.1 h 6.477 V 72 h 6.19 v 3.1 h 6.476 V 72 h 6.19 v 3.1 h 3.472"
         id="path109" />
      <path
         style="fill:none;stroke:#000000;stroke-width:1"
         d="m 309.9,75.1 v 6.1383 h 3.1 v 6.19 h -3.1 v 9.1434 h 3.1 v 6.1903 h -3.1 v 6.138"
         id="path111" />
      <path
         style="fill:none;stroke:#000000;stroke-width:1"
         d="m 309.9,108.9 h -3.472 v 3.1 h -6.19 v -3.1 h -6.476 v 3.1 h -6.19 v -3.1 h -6.477 v 3.1 h -6.19 v -3.1 h -6.477 v 3.1 h -6.19 v -3.1 h -6.476 v 3.1 h -6.19 v -3.1 H 246.1"
         id="path113" />
      <path
         style="fill:none;stroke:#000000;stroke-width:1"
         d="m 246.1,108.9 v -6.138 H 243 v -6.1903 h 3.1 V 87.4283 H 243 v -6.19 h 3.1 V 75.1"
         id="path115" />
    </g>
    <g
       id="panel8862"
       transform="translate(-295.10629,115.76251)">
      <path
         style="fill:none;stroke:#000000;stroke-width:1"
         d="m 314,72 h 6.666 v 3.1 h 5.81 V 72 h 6.762 v 3.1 h 5.81 V 72 h 6.761 v 3.1 h 5.81 V 72 h 6.762 v 3.1 h 5.81 V 72 h 6.761 v 3.1 h 5.81 V 72 h 6.762 v 3.1 h 5.81 V 72 h 6.761 v 3.1 h 5.81 V 72 h 6.761 v 3.1 h 5.81 V 72 h 6.762 v 3.1 h 5.81 V 72 h 6.761 v 3.1 h 5.81 V 72 h 6.762 v 3.1 h 5.81 V 72 h 6.761 v 3.1 h 5.81 V 72 h 6.762 v 3.1 h 5.81 V 72 H 484"
         id="path118" />
      <path
         style="fill:none;stroke:#000000;stroke-width:1"
         d="m 484,72 v 9.4283 h -3.1 v 5.81 h 3.1 v 9.5234 h -3.1 v 5.8103 H 484 V 112"
         id="path120" />
      <path
         style="fill:none;stroke:#000000;stroke-width:1"
         d="m 484,112 h -6.666 v -3.1 h -5.81 v 3.1 h -6.762 v -3.1 h -5.81 v 3.1 h -6.761 v -3.1 h -5.81 v 3.1 h -6.762 v -3.1 h -5.81 v 3.1 h -6.761 v -3.1 h -5.81 v 3.1 h -6.762 v -3.1 h -5.81 v 3.1 h -6.761 v -3.1 h -5.81 v 3.1 h -6.761 v -3.1 h -5.81 v 3.1 h -6.762 v -3.1 h -5.81 v 3.1 h -6.761 v -3.1 h -5.81 v 3.1 h -6.762 v -3.1 h -5.81 v 3.1 h -6.761 v -3.1 h -5.81 v 3.1 h -6.762 v -3.1 h -5.81 V 112 H 314"
         id="path122" />
      <path
         style="fill:none;stroke:#000000;stroke-width:1"
         d="m 314,112 v -9.428 h 3.1 V 96.7617 H 314 v -9.5234 h 3.1 v -5.81 H 314 V 72"
         id="path124" />
    </g>
    <g
       id="g1867">
      <g
         id="panel2988"
         transform="translate(-52.93921,3.3832914)">
        <path
           style="fill:none;stroke:#000000;stroke-width:1"
           d="m 72,4.1 h 6.4764 V 1 h 6.19 v 3.1 h 6.3815 V 1 h 6.19 v 3.1 h 6.3811 V 1 h 6.19 v 3.1 h 6.382 V 1 h 6.19 v 3.1 h 6.381 V 1 h 6.19 v 3.1 h 6.382 V 1 h 6.19 v 3.1 h 6.381 V 1 h 6.19 v 3.1 h 6.381 V 1 h 6.19 v 3.1 h 6.382 V 1 h 6.19 v 3.1 h 6.381 V 1 h 6.19 v 3.1 h 6.382 V 1 h 6.19 v 3.1 h 6.381 V 1 h 6.19 v 3.1 h 6.382 V 1 h 6.19 V 4.1 H 242"
           id="path127" />
        <path
           style="fill:none;stroke:#000000;stroke-width:1"
           d="m 242,4.1 v 3.66167 h -3.1 v 5.81003 h 5.91955 v 6.639712 L 238.9,20.4283 v 5.81 h 3.1 v 6.8567 h -3.1 v 5.81 h 3.1 v 6.8567 h -3.1 v 5.81 h 3.1 v 6.8566 h -3.1 v 5.81 H 242 V 67.9"
           id="path129"
           sodipodi:nodetypes="cccccccccccccccccccccc" />
        <path
           style="fill:none;stroke:#000000;stroke-width:1"
           d="m 242,67.9 h -6.476 V 71 h -6.19 v -3.1 h -6.382 V 71 h -6.19 v -3.1 h -6.381 V 71 h -6.19 v -3.1 h -6.382 V 71 h -6.19 v -3.1 h -6.381 V 71 h -6.19 v -3.1 h -6.382 V 71 h -6.19 v -3.1 h -6.381 V 71 h -6.19 v -3.1 h -6.381 V 71 h -6.19 v -3.1 h -6.382 V 71 h -6.19 v -3.1 h -6.381 V 71 h -6.19 v -3.1 h -6.382 V 71 h -6.19 V 67.9 H 97.2379 V 71 h -6.19 V 67.9 H 84.6664 V 71 h -6.19 V 67.9 H 72"
           id="path131" />
        <path
           style="fill:none;stroke:#000000;stroke-width:1"
           d="m 72,67.9 v -3.6617 h 3.1 v -5.81 H 72 v -6.8566 h 3.1 v -5.81 H 72 V 38.905 h 3.1 v -5.81 H 72 v -6.8567 h 3.1 v -5.81 L 68.746675,20.41005 68.764925,13.671017 75.1,13.5717 V 7.76167 H 72 V 4.1"
           id="path133"
           sodipodi:nodetypes="cccccccccccccccccccccc" />
      </g>
    </g>
    <ellipse
       style="opacity:0;fill:#000000;stroke-width:0.264583"
       id="path257"
       cx="21.701584"
       cy="11.173585"
       rx="21.701584"
       ry="11.173585" />
    <ellipse
       style="opacity:0;fill:#000000;stroke-width:0.264583"
       id="path259"
       cx="21.204981"
       cy="10.726642"
       rx="21.204981"
       ry="10.726642" />
    <ellipse
       style="opacity:0;fill:#000000;stroke-width:0.264583"
       id="path261"
       cx="21.00634"
       cy="10.577661"
       rx="21.00634"
       ry="10.577661" />
    <ellipse
       style="opacity:0;fill:#000000;stroke-width:0.264583"
       id="path263"
       cx="20.857359"
       cy="10.428679"
       rx="20.857359"
       ry="10.428679" />
    <ellipse
       style="opacity:0;fill:#000000;stroke-width:0.264583"
       id="path265"
       cx="20.758038"
       cy="10.329359"
       rx="20.758038"
       ry="10.329359" />
    <ellipse
       style="opacity:0;fill:#000000;stroke-width:0.264583"
       id="path267"
       cx="20.609058"
       cy="10.230038"
       rx="20.609058"
       ry="10.230038" />
    <ellipse
       style="opacity:0;fill:#ff0000;stroke-width:0.264583"
       id="path279"
       cx="-34.414642"
       cy="13.25932"
       rx="5.2143397"
       ry="3.5258868" />
    <ellipse
       style="opacity:0;fill:#ff0000;stroke-width:0.264583"
       id="path281"
       cx="-36.74868"
       cy="16.387924"
       rx="3.277585"
       ry="4.0721512" />
    <ellipse
       style="opacity:0;fill:#ff0000;stroke-width:0.264583"
       id="path283"
       cx="-39.777962"
       cy="11.024604"
       rx="1.6387925"
       ry="2.7809811" />
    <ellipse
       style="opacity:0.03;fill:#ff0000;stroke-width:0.264583"
       id="path285"
       cx="-51.001205"
       cy="15.74234"
       rx="2.9299626"
       ry="4.022491" />
    <ellipse
       style="opacity:0.03;fill:#ff0000;stroke-width:0.264583"
       id="path287"
       cx="-50.852226"
       cy="42.558945"
       rx="5.2639999"
       ry="3.5258868" />
    <ellipse
       style="opacity:0.03;fill:#ff0000;stroke-width:0.264583"
       id="path289"
       cx="-38.089512"
       cy="24.383245"
       rx="5.412981"
       ry="3.2279246" />
    <ellipse
       style="fill:none;fill-rule:evenodd;stroke-width:0.264583"
       id="path295"
       cx="-44.793659"
       cy="40.721508"
       rx="8.2436228"
       ry="5.2639999" />
    <ellipse
       style="fill:#ff0000;fill-rule:evenodd;stroke-width:0.264583;fill-opacity:0"
       id="path1124"
       cx="-38.238491"
       cy="25.475775"
       rx="4.2707925"
       ry="3.3272452" />
    <g
       id="g1890"
       transform="translate(1.646613,-0.63331269)">
      <g
         id="g1878">
        <g
           id="g1860"
           transform="translate(0,0.61158798)">
          <circle
             style="fill:#ff0000;fill-rule:evenodd;stroke-width:0.264583"
             id="path1194"
             cx="39.67865"
             cy="25.242264"
             r="2.5" />
          <circle
             style="fill:#ff0000;fill-rule:evenodd;stroke-width:0.264583"
             id="path1194-7"
             cx="80.928406"
             cy="25.242264"
             r="2.5" />
          <circle
             style="fill:#ff0000;fill-rule:evenodd;stroke-width:0.264583"
             id="path1194-3"
             cx="122.17816"
             cy="25.242264"
             r="2.5" />
          <circle
             style="fill:#ff0000;fill-rule:evenodd;stroke-width:0.264583"
             id="path1194-0"
             cx="163.42792"
             cy="25.242264"
             r="2.5" />
          <rect
             style="fill:#0000ff;fill-rule:evenodd;stroke-width:0.264583"
             id="rect1283"
             width="7"
             height="7"
             x="36.352146"
             y="41.122429" />
          <rect
             style="fill:#0000ff;fill-rule:evenodd;stroke-width:0.264583"
             id="rect1283-4"
             width="7"
             height="7"
             x="160.14799"
             y="41.122433"
             inkscape:transform-center-x="0.12666253"
             inkscape:transform-center-y="0.25332508" />
          <rect
             style="fill:#0000ff;fill-rule:evenodd;stroke-width:0.264583"
             id="rect1283-5"
             width="7"
             height="7"
             x="118.88271"
             y="41.122429" />
          <rect
             style="fill:#0000ff;fill-rule:evenodd;stroke-width:0.264583"
             id="rect1283-6"
             width="7"
             height="7"
             x="77.617432"
             y="41.122429" />
        </g>
      </g>
    </g>
    <text
       xml:space="preserve"
       style="font-size:22.5778px;line-height:1.25;font-family:sans-serif;-inkscape-font-specification:sans-serif;stroke-width:0.264583"
       x="27.725401"
       y="99.928047"
       id="text1314"><tspan
         sodipodi:role="line"
         id="tspan1312"
         x="27.725401"
         y="99.928047"
         style="stroke-width:0.264583">Berglind Nína</tspan></text>
    <path
       style="display:inline;fill:#000000;stroke-width:0.264583"
       d="m 104.20815,117.88576 c -1.77568,1.20985 -2.60255,2.76987 -4.02916,4.10476 -15.747573,16.9685 -30.951984,34.07688 -47.215348,50.91231 -2.261164,2.55782 -4.967061,5.0408 -6.60368,7.73199 0.127817,0.68875 2.076104,0.31859 2.907896,0.45201 28.057894,0.15958 56.120352,0.0848 84.179322,0.005 9.33087,-0.0833 18.71213,0.002 28.01046,-0.282 -2.36225,-3.11935 -5.47337,-6.07511 -8.0191,-9.15631 -3.10179,-3.95072 -7.05969,-7.69811 -10.41126,-11.59133 -1.73876,-1.81694 -3.26086,-3.71017 -5.0389,-5.50694 -2.27265,-1.89904 -3.95268,-4.00063 -5.63235,-6.06268 -0.19317,-0.7733 1.20918,-1.51464 0.85831,-2.27802 -0.79766,0.0193 -1.26748,0.98602 -2.20443,0.50595 -2.40462,-1.7804 -3.81867,-3.88885 -5.76394,-5.81379 -6.91134,-7.5002 -13.55137,-15.06825 -20.45886,-22.56844 -0.19348,-0.13776 -0.29501,-0.3614 -0.57896,-0.45219 z m 3.86507,9.66785 c 4.39835,4.86587 8.94011,9.70977 13.2756,14.58311 -1.33096,-0.13399 -2.43325,-0.86443 -3.77025,-1.11692 -3.29423,-0.86786 -6.8261,-1.71462 -10.55665,-1.75775 -0.94748,-0.59286 -0.41565,-1.53479 -0.6255,-2.24944 -0.0342,-3.74036 0.0144,-7.48086 0.0119,-11.22127 0.55497,0.58743 1.10995,1.17485 1.66491,1.76227 z m -6.43735,5.08914 c -0.0207,2.14699 0.11933,4.33709 -0.0368,6.45942 -1.09739,-0.0726 -3.384096,0.51434 -3.39078,-0.30242 -0.299722,-0.54785 -0.07492,-1.30562 -0.748329,-1.75553 -2.265672,0.35338 -3.547699,1.60316 -5.185821,2.4167 -1.479079,0.89415 -3.014979,1.78726 -4.961994,2.40673 4.755666,-5.20279 9.504114,-10.4074 14.253344,-15.61181 0.0234,2.12898 0.0469,4.25795 0.0704,6.38691 z m 0.33853,15.04286 c -0.027,1.68742 0.0339,3.41222 -0.096,5.07935 -1.37167,-1.58315 -2.802587,-3.20834 -3.494563,-4.91443 -0.325656,-1.71728 -0.27262,-3.44539 -0.337464,-5.16866 1.162131,0.19623 4.073337,-0.56473 3.927987,0.34635 0,1.55247 0,3.10492 0,4.65739 z m 5.28956,-5.07514 c 4.76494,0.15817 9.11057,1.54959 12.66667,3.14127 1.82065,0.91019 3.67347,1.88328 4.91488,3.03227 -1.68783,0.78088 -3.73395,1.48001 -5.80507,2.00391 -3.84906,0.89868 -7.93439,1.49249 -11.86125,2.2769 -1.05408,0.0628 -0.28423,-0.86783 -0.58898,-1.15684 -0.1986,-3.09805 -0.20013,-6.19831 -0.28693,-9.29751 0.32023,0 0.64045,0 0.96068,0 z m -24.179923,6.79961 c -0.521714,1.40396 -1.143815,3.00813 0.09843,4.34745 1.487572,1.49084 4.191354,2.68253 4.913371,4.35863 -0.0258,0.72141 -0.216027,1.64257 -1.363707,2.11786 -0.750978,0.24286 -1.612299,0.14694 -2.184166,-0.147 -0.472888,8.3e-4 0.0841,0.2887 -0.348663,0.35335 -0.807805,1.49153 -1.492129,3.03495 -1.787521,4.58152 0.04805,2.45473 4.276571,4.01065 6.820297,5.81138 1.149718,0.7123 2.224245,1.45647 3.216629,2.23139 -0.794185,0.47722 -2.203797,0.91485 -3.256258,0.37183 -6.622952,-2.78302 -10.40252,-7.09793 -11.852184,-11.41808 -0.667997,-4.12667 0.243043,-8.44935 4.246244,-12.09119 0.579923,-0.57703 1.220843,-1.14013 2.049833,-1.62871 -0.184103,0.37053 -0.368206,0.74105 -0.552308,1.11157 z m 44.566193,2.08286 c 0.98563,0.47014 1.16134,1.34596 1.70357,1.98427 1.47289,2.51371 2.06179,5.20955 1.52283,7.82806 -2.06204,0.54778 -4.50396,0.88228 -6.34971,1.55174 -0.79507,0.96142 -1.80448,1.95992 -3.81196,2.32979 -0.27563,0.0867 -1.4951,0.40947 -0.80608,0.0193 0.36599,-0.39756 -0.95948,0.0374 -1.23576,0.0476 -1.40036,0.26085 -2.93567,0.58524 -3.4663,1.37755 -0.41023,0.28859 -1.37553,0.75156 -1.75181,0.1624 -1.7025,-1.10386 -3.29018,-2.25496 -4.92758,-3.38539 2.76943,-2.66464 6.10889,-5.17811 9.7163,-7.54731 2.77946,-1.58165 5.54706,-3.29477 9.1714,-4.34647 0.0762,-0.0121 0.15502,-0.0216 0.2351,-0.0216 z m 9.11198,7.78463 c 1.3066,0.99856 1.66169,2.31167 3.00624,3.32686 3.36486,3.9458 6.97611,7.83861 10.52206,11.74091 1.00596,1.14924 2.88825,2.14511 3.22,3.42543 -0.49769,0.69854 -3.11733,0.11567 -4.44988,0.31005 -8.25938,-0.0492 -16.54372,0.16108 -24.78661,-0.15438 -0.70205,0.0259 -1.59051,-0.27823 -1.02465,-0.66442 3.46212,-2.61864 7.72447,-5.00509 10.03907,-8.00329 2.61962,-3.07135 2.80261,-6.48198 3.26106,-9.77929 0.0434,-0.0611 0.0495,-0.19404 0.21271,-0.20187 z m -65.678034,0.46646 c 0.878488,3.60547 1.195214,7.40612 4.824151,10.61815 1.825073,1.82548 4.320758,3.48403 6.235294,5.25348 -1.120444,0.92338 -3.372852,0.56512 -5.07577,0.56084 -1.600947,0.29771 -2.745826,1.21766 -4.652137,1.10206 -5.572337,0.20953 -11.21123,0.41842 -16.782244,0.18702 1.468975,-2.26669 3.808016,-4.43207 5.706195,-6.6339 3.494102,-3.62974 6.037917,-7.49843 9.691195,-11.08204 -0.0034,8.3e-4 0.05945,-0.0379 0.05328,-0.006 z m 59.754614,1.98374 c 0.36867,0.56229 -1.17337,0.82611 -1.81579,1.06566 0.55652,-0.35435 1.00237,-0.865 1.81579,-1.06566 z m -0.29962,1.32241 c 0.29265,0.18775 -0.9124,0.63831 -1.11208,0.40291 0.30112,-0.16624 0.68595,-0.33616 1.11208,-0.40291 z m -0.74049,1.44336 c -1.89185,3.20757 -4.9208,6.37424 -9.80717,8.59856 -0.9229,0.22545 -1.15722,-0.68832 -1.60064,-0.93887 -1.28846,-1.49535 -2.84628,-2.99154 -3.79287,-4.5333 1.22574,-0.51332 2.9167,-0.0714 4.16675,-0.60031 0.45165,-0.20399 1.85983,-0.32626 1.7023,-0.72069 -0.51447,-0.0429 -0.60391,-0.17878 -0.0837,-0.31107 1.47075,-0.55185 3.22328,-0.99707 5.0534,-0.65462 1.65924,0.23883 3.05616,-0.66069 4.36194,-0.8397 z m -37.00557,0.80498 c 2.669641,0.18331 5.549779,0.37242 7.87196,1.12864 1.18444,0.83116 0.78043,2.00937 0.87058,2.99089 -0.32727,1.13557 -2.86828,1.50736 -4.430185,2.08257 -1.606253,0.5129 -2.540181,-0.66786 -3.090466,-1.2552 -1.023723,-1.49517 -1.850262,-3.1051 -1.758201,-4.70079 0.04303,-0.13428 0.244625,-0.26572 0.536312,-0.24611 z m 8.38908,6.85952 c 0.63131,0.32754 0.26672,1.05005 0.45799,1.49983 0.0868,0.92531 -0.0244,1.851 -0.25381,2.76866 -1.407623,-0.062 -3.470152,4.5e-4 -4.285167,-0.71483 0.09031,-0.23605 0.964664,0.13781 0.782075,-0.25451 0.07297,-0.73022 -0.901115,-1.57405 -0.204183,-2.25477 1.036149,-0.43699 2.193763,-0.87701 3.503095,-1.04438 z m 10.02735,1.55761 c 1.63052,-0.008 3.037,0.6772 3.85867,1.33696 -2.24517,0.75759 -4.96611,1.27093 -7.63899,1.36608 -1.03778,-0.1712 -0.26351,-0.94614 -0.0101,-1.28237 0.69788,-0.81433 1.98764,-1.4695 3.79044,-1.42067 z m -18.116291,0.44771 c 1.570008,0.13967 2.300759,1.07498 3.463639,1.56571 0.189653,0.31124 -1.073641,-0.0749 -1.302402,-0.0789 -1.39506,-0.285 -2.699545,-0.67664 -3.91945,-1.12948 0.550527,-0.15332 1.104405,-0.36564 1.758213,-0.35727 z m -8.165171,2.76211 c 0.42764,0.0323 1.483301,0.17041 1.421278,0.41747 -1.003562,0.11746 -2.227381,0.13237 -3.164559,0.0134 0.496876,-0.20054 1.102119,-0.40708 1.743281,-0.43091 z"
       id="path3031" />
    <text
       xml:space="preserve"
       style="font-size:22.5778px;line-height:1.25;font-family:sans-serif;-inkscape-font-specification:sans-serif;stroke-width:0.264583"
       x="33.312244"
       y="213.17305"
       id="text1896"><tspan
         sodipodi:role="line"
         id="tspan1894"
         x="33.312244"
         y="213.17305"
         style="stroke-width:0.264583">Simon Says</tspan></text>
  </g>
</svg>
